# xmcd
#
# Track frame offsets:
#	150
#	18458
#	31565
#	49907
#	68322
#	83659
#	101101
#	123962
#	140541
#	156020
#	170099
#	183435
#	197818
#
# Disc length: 2907 seconds
#
# Revision: 0
# Processed by: cddbd v1.5.1PL0 Copyright (c) Steve Scherf et al.
# Submitted via: EasyCDDAExtractor 8.2.1.1
#
DISCID=a40b590d
DTITLE=Alan Jackson - Drive
DYEAR=1900
DGENRE=Country
TTITLE0=Drive (For Daddy Gene)
TTITLE1=A Little Bluer Than That
TTITLE2=Bring On The Night
TTITLE3=Work In Progress
TTITLE4=The Sounds
TTITLE5=Designated Drinker
TTITLE6=Where Were You
TTITLE7=That'd Be Alright
TTITLE8=Once In A Lifetime Love
TTITLE9=When Love Comes Around
TTITLE10=I Slipped And Fell In Love
TTITLE11=First Love
TTITLE12=Little Man
EXTD=
EXTT0=
EXTT1=
EXTT2=
EXTT3=
EXTT4=
EXTT5=
EXTT6=
EXTT7=
EXTT8=
EXTT9=
EXTT10=
EXTT11=
EXTT12=
PLAYORDER=
